<svg width="20" height="19" viewBox="0 0 20 19" fill="none" xmlns="http://www.w3.org/2000/svg">
<path d="M4.98959 0.0856401C5.87425 -0.0658651 6.78147 -0.0158873 7.64436 0.23189C8.50725 0.479666 9.33688 1.02038 10.0084 1.61875C10.6493 1.05342 11.4407 0.533515 12.2565 0.284044C13.0723 0.0345726 13.9316 -0.0371761 14.7772 0.0735843L15.0231 0.109752C16.0889 0.29472 17.0851 0.765955 17.9063 1.47355C18.7274 2.18115 19.3428 3.09877 19.6874 4.12925C20.0321 5.15972 20.093 6.26469 19.8638 7.32713C19.6346 8.38957 19.1239 9.36995 18.3856 10.1644L18.2057 10.3503L18.1577 10.3915L10.0084 18.0952L1.81501 10.3483C1.02158 9.57234 0.457317 8.5908 0.184698 7.51239C-0.0879202 6.43397 -0.0582509 5.30075 0.27042 4.23823C0.599091 3.17572 1.21394 2.22537 2.04687 1.49244C2.8798 0.759513 3.8983 0.272604 4.98959 0.0856401Z" fill="#FF0004"/>
</svg>
