<svg width="23" height="14" viewBox="0 0 23 14" fill="none" xmlns="http://www.w3.org/2000/svg">
<path d="M10.4723 8.4253C10.2826 8.59297 10.0351 8.67681 9.72984 8.67681C9.43377 8.67681 9.1886 8.59077 8.9943 8.41869C8.80001 8.24661 8.70287 8.01937 8.70287 7.73698C8.70287 7.45018 8.79539 7.22295 8.98043 7.05528C9.17009 6.88761 9.41758 6.80378 9.7229 6.80378C10.0328 6.80378 10.2826 6.88761 10.4723 7.05528C10.662 7.22295 10.7568 7.45018 10.7568 7.73698C10.7568 8.0282 10.662 8.25764 10.4723 8.4253Z" fill="white"/>
<path d="M14.397 8.47163C14.2351 8.60842 14.0478 8.67681 13.835 8.67681C13.6222 8.67681 13.4348 8.60842 13.2729 8.47163C13.111 8.33044 12.9838 8.12747 12.8913 7.86274C12.8034 7.59358 12.7595 7.2759 12.7595 6.90968C12.7595 6.54345 12.8034 6.22797 12.8913 5.96324C12.9838 5.69409 13.111 5.49112 13.2729 5.35434C13.4348 5.21314 13.6222 5.14255 13.835 5.14255C14.0478 5.14255 14.2351 5.21314 14.397 5.35434C14.559 5.49112 14.6839 5.69409 14.7718 5.96324C14.8643 6.22797 14.9105 6.54345 14.9105 6.90968C14.9105 7.2759 14.8643 7.59358 14.7718 7.86274C14.6839 8.12747 14.559 8.33044 14.397 8.47163Z" fill="white"/>
<path fill-rule="evenodd" clip-rule="evenodd" d="M0.867647 2.3687C0.123282 2.75031 -0.16664 3.60616 0.0936737 4.39244L2.69612 12.2531C3.05582 13.3396 4.30851 13.8928 5.41756 13.56C6.90679 13.1131 9.08035 12.628 11.5 12.628C13.9197 12.628 16.0932 13.1131 17.5824 13.56C18.6915 13.8928 19.9442 13.3396 20.3039 12.2531L22.9063 4.39243C23.1666 3.60616 22.8767 2.75031 22.1324 2.3687C20.3626 1.46139 16.7042 0 11.5 0C6.29577 0 2.63743 1.46139 0.867647 2.3687ZM8.3698 8.71652C8.67974 9.10039 9.13308 9.29232 9.72984 9.29232C10.0722 9.29232 10.3752 9.23055 10.6388 9.10701C10.9071 8.97905 11.1153 8.79815 11.2633 8.56429C11.4114 8.33044 11.4854 8.05908 11.4854 7.75022C11.4854 7.44136 11.4114 7.17 11.2633 6.93615C11.1199 6.7023 10.921 6.5236 10.6666 6.40005C10.4168 6.2721 10.1392 6.20812 9.83392 6.20812C9.56561 6.20812 9.332 6.25445 9.13308 6.34711C8.93417 6.43535 8.77226 6.5589 8.64736 6.71774H8.61266C8.62654 6.21033 8.73294 5.81984 8.93185 5.54627C9.1354 5.27271 9.42221 5.13593 9.79229 5.13593C10.019 5.13593 10.2086 5.19549 10.3613 5.31463C10.5186 5.42935 10.6319 5.5926 10.7013 5.80439H11.4299C11.3466 5.40287 11.1593 5.0896 10.8678 4.86457C10.5764 4.63954 10.2202 4.52703 9.79922 4.52703C9.19785 4.52703 8.73062 4.73661 8.39755 5.15578C8.06911 5.57054 7.90489 6.18826 7.90489 7.00895C7.90489 7.76346 8.05986 8.33265 8.3698 8.71652ZM12.8705 9.00773C13.1434 9.19746 13.4649 9.29232 13.835 9.29232C14.2051 9.29232 14.5243 9.19746 14.7926 9.00773C15.0655 8.818 15.2737 8.54444 15.4171 8.18704C15.5651 7.82964 15.6391 7.40386 15.6391 6.90968C15.6391 6.4155 15.5651 5.98971 15.4171 5.63231C15.2737 5.27492 15.0655 5.00135 14.7926 4.81162C14.5243 4.62189 14.2051 4.52703 13.835 4.52703C13.4649 4.52703 13.1434 4.62189 12.8705 4.81162C12.6022 5.00135 12.394 5.27492 12.246 5.63231C12.1026 5.98971 12.0309 6.4155 12.0309 6.90968C12.0309 7.40386 12.1026 7.82964 12.246 8.18704C12.394 8.54444 12.6022 8.818 12.8705 9.00773ZM3.78276 6.59315L4.51023 7.31029L3.94556 7.86695L2.5339 6.47532C2.37797 6.3216 2.37797 6.07238 2.5339 5.91866L3.94556 4.52703L4.51023 5.08368L3.77759 5.80592H4.75771C5.6949 5.80592 6.45464 6.55488 6.45465 7.47877L6.45466 9.29221L5.6561 9.29221L5.65609 7.47877C5.65608 6.98966 5.25387 6.59315 4.75771 6.59315H3.78276ZM19.911 6.59257L19.1776 5.8696V9.29212H18.3758V5.88326L17.6563 6.59257L17.0893 6.03363L18.5002 4.64279C18.6567 4.48844 18.9106 4.48844 19.0671 4.64279L20.478 6.03363L19.911 6.59257Z" fill="white"/>
</svg>
