<svg width="40" height="40" viewBox="0 0 40 40" fill="none" xmlns="http://www.w3.org/2000/svg">
<rect width="40" height="40" rx="8" fill="white"/>
<path d="M20 12C18.0962 12 17.1654 13.1489 15.5154 15.3617C13.4846 18.1277 11.4538 21.1489 10.1423 23.1915C9.21154 24.6809 9 25.4043 9 26C9 27.234 9.84615 28 10.9462 28C11.9192 28 12.6385 27.4043 14.0346 26.2553C15.9385 24.6383 17.7577 22.9362 20 22.9362C22.2423 22.9362 24.0615 24.6383 25.9654 26.2553C27.3615 27.4043 28.0808 28 29.0538 28C30.1538 28 31 27.234 31 26C31 25.4043 30.7885 24.6809 29.8577 23.1915C28.5462 21.1489 26.5154 18.1277 24.4846 15.3617C22.8346 13.1489 21.9038 12 20 12Z" fill="black"/>
</svg>
