<svg width="11" height="13" viewBox="0 0 11 13" fill="none" xmlns="http://www.w3.org/2000/svg">
<path d="M10.6364 10.1678C10.6364 10.0895 10.6052 10.0143 10.5498 9.95892L9.54108 8.95017C9.48567 8.89476 9.45455 8.81961 9.45455 8.74125V5.31818C9.45455 3.48636 8.255 1.87318 6.5 1.35318V1.18182C6.5 0.86838 6.37549 0.56778 6.15385 0.346146C5.93222 0.124513 5.63162 0 5.31818 0C5.00474 0 4.70414 0.124513 4.48251 0.346146C4.26088 0.56778 4.13636 0.86838 4.13636 1.18182V1.35318C2.38136 1.87318 1.18182 3.48636 1.18182 5.31818V8.74125C1.18182 8.81961 1.15069 8.89476 1.09528 8.95017L0.0865366 9.95892C0.0311282 10.0143 0 10.0895 0 10.1678V10.3409C0 10.5041 0.13228 10.6364 0.295455 10.6364H10.3409C10.5041 10.6364 10.6364 10.5041 10.6364 10.3409V10.1678Z" fill="white"/>
<path d="M6.36277 12.5673C6.63981 12.2903 6.79545 11.9145 6.79545 11.5227H3.84091C3.84091 11.9145 3.99655 12.2903 4.27359 12.5673C4.55063 12.8444 4.92638 13 5.31818 13C5.70998 13 6.08573 12.8444 6.36277 12.5673Z" fill="white"/>
</svg>
